<svg width="343" height="70" viewBox="0 0 343 70" fill="none" xmlns="http://www.w3.org/2000/svg">
<g clip-path="url(#clip0_5136_23678)">
<path d="M172 70C191.33 70 207 54.33 207 35C207 15.67 191.33 0 172 0C152.67 0 137 15.67 137 35C137 54.33 152.67 70 172 70Z" fill="#CBCED6"/>
<path d="M148.957 61.2791C149.457 58.1032 150.668 55.0812 152.498 52.438C154.328 49.7948 156.731 47.5987 159.528 46.0131C159.701 45.9199 159.897 45.8781 160.092 45.8927C160.288 45.9072 160.476 45.9774 160.633 46.0951C164.127 48.5362 168.301 49.8146 172.563 49.7491C176.861 49.8156 181.068 48.5151 184.579 46.0351C184.703 45.9416 184.847 45.8786 184.999 45.8513C185.152 45.824 185.309 45.8332 185.457 45.8781C185.56 45.9144 185.658 45.9617 185.751 46.0191C190.551 49.0191 195.063 54.1641 196.412 60.0101C189.891 66.3927 181.126 69.9615 172.001 69.9491C163.52 69.9621 155.326 66.8792 148.957 61.2791V61.2791Z" fill="white"/>
<path d="M156.646 30.6338C156.651 26.3871 158.34 22.3158 161.343 19.3125C164.345 16.3092 168.416 14.6191 172.663 14.6128C176.91 14.6191 180.981 16.3091 183.984 19.3123C186.987 22.3154 188.677 26.3868 188.683 30.6338C188.677 34.8805 186.988 38.9516 183.984 41.9541C180.981 44.9566 176.91 46.6453 172.663 46.6498C168.417 46.6453 164.345 44.9564 161.343 41.9539C158.34 38.9513 156.651 34.8802 156.646 30.6338V30.6338Z" fill="white"/>
</g>
<path d="M197 70C202.523 70 207 65.5228 207 60C207 54.4772 202.523 50 197 50C191.477 50 187 54.4772 187 60C187 65.5228 191.477 70 197 70Z" fill="#FF710B"/>
<path d="M196.666 55.166V64.166" stroke="white" stroke-width="1.5" stroke-linecap="round"/>
<path d="M201.166 59.666H192.166" stroke="white" stroke-width="1.5" stroke-linecap="round"/>
<defs>
<clipPath id="clip0_5136_23678">
<rect width="70" height="70" fill="white" transform="translate(137)"/>
</clipPath>
</defs>
</svg>
